HIERARCHY
ROOT Hips
{
  OFFSET 0.000000 0.000000 0.000000
  CHANNELS 6 Xposition Yposition Zposition Zrotation Xrotation Yrotation
  JOINT Spine
  {
    OFFSET 0.000000 10.000000 0.000000
    CHANNELS 3 Zrotation Xrotation Yrotation
    JOINT Chest
    {
      OFFSET 0.000000 15.000000 0.000000
      CHANNELS 3 Zrotation Xrotation Yrotation
      JOINT Neck
      {
        OFFSET 0.000000 15.000000 0.000000
        CHANNELS 3 Zrotation Xrotation Yrotation
        JOINT Head
        {
          OFFSET 0.000000 10.000000 0.000000
          CHANNELS 3 Zrotation Xrotation Yrotation
          End Site
          {
            OFFSET 0.0 0.0 0.0
          }
        }
      }
      JOINT LeftShoulder
      {
        OFFSET 20.000000 15.000000 0.000000
        CHANNELS 3 Zrotation Xrotation Yrotation
        JOINT LeftArm
        {
          OFFSET 15.000000 0.000000 0.000000
          CHANNELS 3 Zrotation Xrotation Yrotation
          JOINT LeftForeArm
          {
            OFFSET 25.000000 0.000000 0.000000
            CHANNELS 3 Zrotation Xrotation Yrotation
            JOINT LeftHand
            {
              OFFSET 20.000000 0.000000 0.000000
              CHANNELS 3 Zrotation Xrotation Yrotation
              End Site
              {
                OFFSET 0.0 0.0 0.0
              }
            }
          }
        }
      }
      JOINT RightShoulder
      {
        OFFSET -20.000000 15.000000 0.000000
        CHANNELS 3 Zrotation Xrotation Yrotation
        JOINT RightArm
        {
          OFFSET -15.000000 0.000000 0.000000
          CHANNELS 3 Zrotation Xrotation Yrotation
          JOINT RightForeArm
          {
            OFFSET -25.000000 0.000000 0.000000
            CHANNELS 3 Zrotation Xrotation Yrotation
            JOINT RightHand
            {
              OFFSET -20.000000 0.000000 0.000000
              CHANNELS 3 Zrotation Xrotation Yrotation
              End Site
              {
                OFFSET 0.0 0.0 0.0
              }
            }
          }
        }
      }
    }
  }
  JOINT LeftUpLeg
  {
    OFFSET 10.000000 -10.000000 0.000000
    CHANNELS 3 Zrotation Xrotation Yrotation
    JOINT LeftLeg
    {
      OFFSET 0.000000 -45.000000 0.000000
      CHANNELS 3 Zrotation Xrotation Yrotation
      JOINT LeftFoot
      {
        OFFSET 0.000000 -45.000000 0.000000
        CHANNELS 3 Zrotation Xrotation Yrotation
        JOINT LeftToeBase
        {
          OFFSET 0.000000 0.000000 10.000000
          CHANNELS 3 Zrotation Xrotation Yrotation
          End Site
          {
            OFFSET 0.0 0.0 0.0
          }
        }
      }
    }
  }
  JOINT RightUpLeg
  {
    OFFSET -10.000000 -10.000000 0.000000
    CHANNELS 3 Zrotation Xrotation Yrotation
    JOINT RightLeg
    {
      OFFSET 0.000000 -45.000000 0.000000
      CHANNELS 3 Zrotation Xrotation Yrotation
      JOINT RightFoot
      {
        OFFSET 0.000000 -45.000000 0.000000
        CHANNELS 3 Zrotation Xrotation Yrotation
        JOINT RightToeBase
        {
          OFFSET 0.000000 0.000000 10.000000
          CHANNELS 3 Zrotation Xrotation Yrotation
          End Site
          {
            OFFSET 0.0 0.0 0.0
          }
        }
      }
    }
  }
}
MOTION
Frames: 13
Frame Time: 0.033333
18.761795 0.954011 6.587237 0.000000 0.000000 0.000000 0.000000 0.000000 0.000000 0.000000 0.000000 0.000000 0.000000 0.000000 0.000000 0.000000 0.000000 0.000000 -61.953133 -12.525957 20.720698 42.382120 32.710379 74.247929 118.029011 60.143950 38.346628 118.029011 60.143950 38.346628 105.593545 -38.485410 -29.683561 -139.001223 84.691865 -37.632686 -148.423037 105.462281 -40.768817 -148.423037 105.462281 -40.768817 6.020892 -37.676915 2.055861 -24.155067 -38.335109 -8.507297 30.475455 120.772959 17.602492 30.475455 120.772959 17.602492 4.006975 -6.466874 0.226462 -0.258177 -40.414699 -0.095028 -4.950465 114.946980 -3.158181 -4.950465 114.946980 -3.158181
18.765116 1.064650 6.466374 0.000000 0.000000 0.000000 0.000000 0.000000 0.000000 0.000000 0.000000 0.000000 0.000000 0.000000 0.000000 0.000000 0.000000 0.000000 -54.635801 -12.272373 23.514615 -69.954407 -63.770825 83.286493 172.704098 161.371893 42.485218 172.704098 161.371893 42.485218 105.968286 -37.059819 -28.365503 -138.683730 79.552629 -34.850881 -148.139513 103.114871 -39.554305 -148.139513 103.114871 -39.554305 3.539450 -35.320276 1.127192 -25.938892 -35.613648 -8.461340 23.842305 117.572501 14.580192 23.842305 117.572501 14.580192 4.026516 -5.114391 0.179903 -0.255619 -39.440189 -0.091626 -4.747761 116.169848 -2.957991 -4.747761 116.169848 -2.957991
18.765810 1.222253 6.465177 0.000000 0.000000 0.000000 0.000000 0.000000 0.000000 0.000000 0.000000 0.000000 0.000000 0.000000 0.000000 0.000000 0.000000 0.000000 -57.112042 -14.630909 26.545833 -34.540270 -32.202647 85.752518 162.753070 145.580589 52.174922 162.753070 145.580589 52.174922 105.990732 -38.279349 -29.316886 -137.853158 83.059382 -37.686649 -147.049761 103.211845 -40.932334 -147.049761 103.211845 -40.932334 1.101441 -36.861441 0.367067 -27.540084 -36.572460 -9.259825 19.621180 114.258534 12.751784 19.621180 114.258534 12.751784 3.871883 -5.173911 0.175004 -0.198812 -40.014128 -0.072389 -4.372218 115.624608 -2.752828 -4.372218 115.624608 -2.752828
18.773800 1.376159 6.457668 0.000000 0.000000 0.000000 0.000000 0.000000 0.000000 0.000000 0.000000 0.000000 0.000000 0.000000 0.000000 0.000000 0.000000 0.000000 -56.752926 -13.447373 24.623620 -90.350332 -84.257490 83.909023 179.385076 178.676733 49.847177 179.385076 178.676733 49.847177 104.790111 -35.925734 -28.041721 -137.021667 78.267107 -35.523422 -146.581854 100.827228 -39.905778 -146.581854 100.827228 -39.905778 1.974033 -36.675879 0.654357 -27.563549 -36.417913 -9.226235 16.281293 115.149722 10.384090 16.281293 115.149722 10.384090 3.600538 -4.649211 0.146209 -0.551107 -40.454822 -0.203069 -5.431012 115.153829 -3.451237 -5.431012 115.153829 -3.451237
18.794261 1.511498 6.460337 0.000000 0.000000 0.000000 0.000000 0.000000 0.000000 0.000000 0.000000 0.000000 0.000000 0.000000 0.000000 0.000000 0.000000 0.000000 -56.831677 -13.247248 24.226241 -81.741198 -75.877065 84.030221 176.847069 173.568545 52.195369 176.847069 173.568545 52.195369 101.819638 -34.312058 -28.158183 -137.538632 79.027114 -35.531065 -147.061313 100.703620 -39.267296 -147.061313 100.703620 -39.267296 3.709881 -35.828476 1.199653 -25.343572 -35.448181 -8.220479 31.408727 118.774493 18.891306 31.408727 118.774493 18.891306 3.054171 -3.556943 0.094855 -0.850210 -40.600843 -0.314514 -6.020410 114.641812 -3.864025 -6.020410 114.641812 -3.864025
18.782334 1.562071 6.459215 0.000000 0.000000 0.000000 0.000000 0.000000 0.000000 0.000000 0.000000 0.000000 0.000000 0.000000 0.000000 0.000000 0.000000 0.000000 -57.165252 -12.262629 22.307665 -121.313095 -117.255917 85.351871 177.189366 172.294459 40.031150 177.189366 172.294459 40.031150 97.995855 -32.194340 -28.167219 -140.137944 83.842117 -36.069443 -148.399430 102.335455 -38.737898 -148.399430 102.335455 -38.737898 6.326342 -35.723444 2.040544 -22.185852 -36.924555 -7.490315 38.576957 118.414182 23.562005 38.576957 118.414182 23.562005 2.647412 -4.072625 0.094146 -2.167501 -40.509792 -0.799926 -9.468459 114.847643 -6.057943 -9.468459 114.847643 -6.057943
18.781549 1.632741 6.277394 0.000000 0.000000 0.000000 0.000000 0.000000 0.000000 0.000000 0.000000 0.000000 0.000000 0.000000 0.000000 0.000000 0.000000 0.000000 -53.146500 -12.000290 23.734748 -97.357086 -82.545114 75.310234 -148.617833 -110.891378 44.382216 -148.617833 -110.891378 44.382216 93.894848 -30.382124 -28.467824 -142.453180 91.999753 -38.782667 -153.604900 113.945746 -39.671647 -153.604900 113.945746 -39.671647 9.708951 -33.245230 2.904871 -18.883103 -32.488112 -5.547805 44.916915 130.009605 21.815816 44.916915 130.009605 21.815816 1.624479 -10.043079 0.142748 -4.307792 -39.289173 -1.538346 -11.650405 116.599917 -7.210811 -11.650405 116.599917 -7.210811
18.803104 1.633099 6.249442 0.000000 0.000000 0.000000 0.000000 0.000000 0.000000 0.000000 0.000000 0.000000 0.000000 0.000000 0.000000 0.000000 0.000000 0.000000 -52.667759 -11.341824 22.688245 -55.132390 -39.818825 69.504633 -154.207793 -141.778248 66.912535 -154.207793 -141.778248 66.912535 91.826341 -28.859336 -27.989912 -146.600889 104.226724 -42.169292 -155.954008 121.147202 -41.369542 -155.954008 121.147202 -41.369542 12.951675 -31.270251 3.639023 -15.551503 -35.010527 -4.932229 51.061535 127.557667 26.475675 51.061535 127.557667 26.475675 0.077783 -9.405714 0.006399 -3.645818 -39.163232 -1.297282 -9.877595 115.812819 -6.203983 -9.877595 115.812819 -6.203983
18.805974 1.630814 6.100436 0.000000 0.000000 0.000000 0.000000 0.000000 0.000000 0.000000 0.000000 0.000000 0.000000 0.000000 0.000000 0.000000 0.000000 0.000000 -50.404283 -10.619425 22.342564 -45.289893 -30.665240 66.627760 -173.238158 -171.725557 78.478633 -173.238158 -171.725557 78.478633 86.854636 -23.409845 -24.692084 -156.320315 131.574033 -49.988011 -162.133787 136.404208 -42.913579 -162.133787 136.404208 -42.913579 14.850855 -29.559590 3.938696 -14.600823 -31.344444 -4.117011 60.127412 136.379225 26.083813 60.127412 136.379225 26.083813 -0.460064 -10.245522 -0.041244 -3.915438 -39.260489 -1.397029 -9.552445 116.306314 -5.942035 -9.552445 116.306314 -5.942035
18.806883 1.644373 5.992470 0.000000 0.000000 0.000000 0.000000 0.000000 0.000000 0.000000 0.000000 0.000000 0.000000 0.000000 0.000000 0.000000 0.000000 0.000000 -48.379921 -10.326717 22.747609 -48.577326 -34.797886 69.550946 175.567797 174.444708 77.152224 175.567797 174.444708 77.152224 88.205039 -24.805318 -25.569283 -154.649741 127.505644 -49.036988 -161.495490 135.338770 -43.265496 -161.495490 135.338770 -43.265496 14.462315 -27.897641 3.610141 -15.213707 -29.947393 -4.091353 70.218308 140.824029 28.091782 70.218308 140.824029 28.091782 -0.713546 -10.872365 -0.067906 -3.646434 -39.963602 -1.326271 -8.367390 115.577552 -5.277171 -8.367390 115.577552 -5.277171
18.834865 1.641373 5.989876 0.000000 0.000000 0.000000 0.000000 0.000000 0.000000 0.000000 0.000000 0.000000 0.000000 0.000000 0.000000 0.000000 0.000000 0.000000 -49.281351 -10.580216 22.824961 -45.997985 -32.874037 69.602720 167.924074 164.774283 76.715181 167.924074 164.774283 76.715181 88.799705 -25.198024 -25.713953 -152.691832 122.983353 -48.193831 -159.103988 129.736879 -42.918511 -159.103988 129.736879 -42.918511 14.324504 -28.225695 3.619155 -15.507852 -30.635967 -4.271844 66.072389 140.709850 26.138348 66.072389 140.709850 26.138348 -0.843723 -11.113105 -0.082083 -3.676151 -39.736247 -1.328832 -8.567086 115.764457 -5.383903 -8.567086 115.764457 -5.383903
18.817433 1.614031 5.650993 0.000000 0.000000 0.000000 0.000000 0.000000 0.000000 0.000000 0.000000 0.000000 0.000000 0.000000 0.000000 0.000000 0.000000 0.000000 -11.953917 -0.918007 8.751310 3.409201 0.476468 15.907636 31.685581 4.046917 14.193736 31.685581 4.046917 14.193736 84.783897 -24.635024 -26.904470 -162.002955 149.726308 -60.689736 -162.084940 140.588296 -47.507347 -162.084940 140.588296 -47.507347 14.246673 -28.747329 3.668618 -16.170644 -31.830922 -4.639364 57.053224 141.065649 21.751786 57.053224 141.065649 21.751786 -2.698813 -11.080545 -0.261829 -6.353963 -38.958933 -2.249511 -11.916951 115.135049 -7.588509 -11.916951 115.135049 -7.588509
18.824398 1.500764 5.539652 0.000000 0.000000 0.000000 0.000000 0.000000 0.000000 0.000000 0.000000 0.000000 0.000000 0.000000 0.000000 0.000000 0.000000 0.000000 -5.145728 -0.118036 2.626359 7.167219 1.036899 16.443275 35.885823 5.148707 15.809610 35.885823 5.148707 15.809610 84.221667 -24.339575 -26.837587 -159.114134 143.348073 -58.187762 -159.197526 132.324021 -45.119167 -159.197526 132.324021 -45.119167 12.646899 -29.578907 3.351632 -17.376544 -31.805866 -4.985951 72.522734 143.219875 27.410788 72.522734 143.219875 27.410788 -3.502696 -11.580182 -0.355288 -8.622405 -39.638952 -3.112680 -15.539757 112.941444 -10.332459 -15.539757 112.941444 -10.332459
